<?xml version="1.0" encoding="UTF-8" standalone="no"?>
<!-- Created with Inkscape (http://www.inkscape.org/) -->

<svg
   xmlns:dc="http://purl.org/dc/elements/1.1/"
   xmlns:cc="http://creativecommons.org/ns#"
   xmlns:rdf="http://www.w3.org/1999/02/22-rdf-syntax-ns#"
   xmlns:svg="http://www.w3.org/2000/svg"
   xmlns="http://www.w3.org/2000/svg"
   xmlns:sodipodi="http://sodipodi.sourceforge.net/DTD/sodipodi-0.dtd"
   xmlns:inkscape="http://www.inkscape.org/namespaces/inkscape"
   width="250.01158"
   height="250"
   viewBox="0 0 250.01157 250"
   id="svg2"
   version="1.1"
   inkscape:version="0.91 r13725"
   sodipodi:docname="simple-logo.svg">
  <defs
     id="defs4" />
  <sodipodi:namedview
     id="base"
     pagecolor="#ffffff"
     bordercolor="#666666"
     borderopacity="1.0"
     inkscape:pageopacity="0.0"
     inkscape:pageshadow="2"
     inkscape:zoom="2.8"
     inkscape:cx="187.9768"
     inkscape:cy="109.38785"
     inkscape:document-units="px"
     inkscape:current-layer="layer1"
     showgrid="false"
     fit-margin-top="0"
     fit-margin-left="0"
     fit-margin-right="0"
     fit-margin-bottom="0"
     units="px"
     borderlayer="true"
     inkscape:window-width="1858"
     inkscape:window-height="1057"
     inkscape:window-x="54"
     inkscape:window-y="-8"
     inkscape:window-maximized="1" />
  <metadata
     id="metadata7">
    <rdf:RDF>
      <cc:Work
         rdf:about="">
        <dc:format>image/svg+xml</dc:format>
        <dc:type
           rdf:resource="http://purl.org/dc/dcmitype/StillImage" />
        <dc:title></dc:title>
      </cc:Work>
    </rdf:RDF>
  </metadata>
  <g
     inkscape:label="Layer 1"
     inkscape:groupmode="layer"
     id="layer1"
     transform="translate(0.25194065,-2.569459)">
    <g
       id="g4460"
       inkscape:export-xdpi="89.995834"
       inkscape:export-ydpi="89.995834"
       transform="matrix(1.0000156,0,0,0.98449007,-0.00194438,3.9154316)">
      <path
         id="rect4136"
         d="m 0,-0.72182435 249.50768,0 0,253.04321435 -249.50768,0 z"
         style="opacity:1;fill:#0f0fd7;fill-opacity:1;fill-rule:evenodd;stroke:#f2f1fe;stroke-width:0.5;stroke-linecap:butt;stroke-linejoin:miter;stroke-miterlimit:4;stroke-dasharray:none;stroke-dashoffset:0;stroke-opacity:1"
         inkscape:connector-curvature="0" />
      <g
         id="flowRoot4154"
         style="font-style:normal;font-variant:normal;font-weight:300;font-stretch:normal;font-size:5px;line-height:125%;font-family:Lato;-inkscape-font-specification:'Lato Light';letter-spacing:0px;word-spacing:0px;fill:#000000;fill-opacity:1;stroke:none;stroke-width:1px;stroke-linecap:butt;stroke-linejoin:miter;stroke-opacity:1"
         transform="translate(-232.84016,-50.507627)">
        <path
           id="path4395"
           style="font-style:normal;font-variant:normal;font-weight:500;font-stretch:normal;font-size:125px;font-family:Lato;-inkscape-font-specification:'Lato Medium';letter-spacing:-9.15000248px;fill:#ffffff;fill-opacity:1"
           d="m 318.74414,116.80273 q 4,-4.0625 8.8125,-6.5625 4.875,-2.5 11.1875,-2.5 5.25,0 9.1875,1.75 4,1.75 6.6875,4.9375 2.6875,3.125 4.0625,7.5625 1.375,4.4375 1.375,9.8125 l 0,40.4375 -12.25,0 0,-40.4375 q 0,-6.8125 -3.125,-10.5625 -3.125,-3.8125 -9.5625,-3.8125 -4.6875,0 -8.8125,2.25 -4.0625,2.1875 -7.5625,6 l 0,46.5625 -12.1875,0 0,-92.249996 12.1875,0 0,36.812496 z"
           inkscape:connector-curvature="0" />
        <path
           id="path4397"
           style="font-style:normal;font-variant:normal;font-weight:500;font-stretch:normal;font-size:125px;font-family:Lato;-inkscape-font-specification:'Lato Medium';letter-spacing:-9.15000248px;fill:#ffffff;fill-opacity:1"
           d="m 411.73086,120.61523 q -0.5625,0.6875 -1.125,1.125 -0.5,0.375 -1.5,0.375 -1,0 -2.125,-0.75 -1.0625,-0.8125 -2.75,-1.6875 -1.625,-0.9375 -4,-1.6875 -2.3125,-0.8125 -5.75,-0.8125 -4.5,0 -7.9375,1.625 -3.4375,1.625 -5.75,4.625 -2.25,3 -3.4375,7.3125 -1.1875,4.3125 -1.1875,9.6875 0,5.5625 1.25,9.9375 1.25,4.3125 3.5625,7.3125 2.3125,2.9375 5.625,4.5 3.3125,1.5 7.375,1.5 3.9375,0 6.5,-0.9375 2.5625,-1 4.25,-2.125 1.6875,-1.125 2.8125,-2.0625 1.125,-1 2.3125,-1 1.5,0 2.3125,1.125 l 3.5,4.5 q -2.1875,2.6875 -4.9375,4.5625 -2.6875,1.875 -5.75,3.0625 -3.0625,1.1875 -6.4375,1.75 -3.3125,0.5625 -6.75,0.5625 -5.9375,0 -11.125,-2.1875 -5.125,-2.1875 -8.9375,-6.375 -3.75,-4.1875 -5.9375,-10.25 -2.1875,-6.125 -2.1875,-13.875 0,-7.0625 1.9375,-13.0625 2,-6 5.8125,-10.3125 3.875,-4.375 9.5,-6.8125 5.625,-2.5 12.875,-2.5 6.8125,0 12,2.1875 5.1875,2.1875 9.25,6.1875 l -3.25,4.5 z"
           inkscape:connector-curvature="0" />
        <path
           id="path4399"
           style="font-style:normal;font-variant:normal;font-weight:500;font-stretch:normal;font-size:125px;font-family:Lato;-inkscape-font-specification:'Lato Medium';letter-spacing:-9.15000248px;fill:#ffffff;fill-opacity:1"
           d="m 461.17461,120.61523 q -0.5625,0.6875 -1.125,1.125 -0.5,0.375 -1.5,0.375 -1,0 -2.125,-0.75 -1.0625,-0.8125 -2.75,-1.6875 -1.625,-0.9375 -4,-1.6875 -2.3125,-0.8125 -5.75,-0.8125 -4.5,0 -7.9375,1.625 -3.4375,1.625 -5.75,4.625 -2.25,3 -3.4375,7.3125 -1.1875,4.3125 -1.1875,9.6875 0,5.5625 1.25,9.9375 1.25,4.3125 3.5625,7.3125 2.3125,2.9375 5.625,4.5 3.3125,1.5 7.375,1.5 3.9375,0 6.5,-0.9375 2.5625,-1 4.25,-2.125 1.6875,-1.125 2.8125,-2.0625 1.125,-1 2.3125,-1 1.5,0 2.3125,1.125 l 3.5,4.5 q -2.1875,2.6875 -4.9375,4.5625 -2.6875,1.875 -5.75,3.0625 -3.0625,1.1875 -6.4375,1.75 -3.3125,0.5625 -6.75,0.5625 -5.9375,0 -11.125,-2.1875 -5.125,-2.1875 -8.9375,-6.375 -3.75,-4.1875 -5.9375,-10.25 -2.1875,-6.125 -2.1875,-13.875 0,-7.0625 1.9375,-13.0625 2,-6 5.8125,-10.3125 3.875,-4.375 9.5,-6.8125 5.625,-2.5 12.875,-2.5 6.8125,0 12,2.1875 5.1875,2.1875 9.25,6.1875 l -3.25,4.5 z"
           inkscape:connector-curvature="0" />
      </g>
      <g
         id="flowRoot4162"
         style="font-style:normal;font-variant:normal;font-weight:300;font-stretch:normal;font-size:5px;line-height:125%;font-family:Lato;-inkscape-font-specification:'Lato Light';letter-spacing:-5.44999981px;word-spacing:0px;fill:#000000;fill-opacity:1;stroke:none;stroke-width:1px;stroke-linecap:butt;stroke-linejoin:miter;stroke-opacity:1"
         transform="translate(-226.77925,74.751289)">
        <path
           id="path4402"
           style="font-style:normal;font-variant:normal;font-weight:300;font-stretch:normal;font-size:25px;font-family:Lato;-inkscape-font-specification:'Lato Light';letter-spacing:-2.32000113px;fill:#ffffff;fill-opacity:1"
           d="m 301.24414,59.090234 q 0.8625,-1.05 1.9625,-1.675 1.1125,-0.625 2.4875,-0.625 1.025,0 1.8,0.325 0.7875,0.325 1.3,0.9375 0.5125,0.6125 0.775,1.475 0.2625,0.8625 0.2625,1.95 l 0,7.95 -1.2,0 0,-7.95 q 0,-1.75 -0.8,-2.7375 -0.8,-1 -2.4375,-1 -1.2125,0 -2.275,0.625 -1.05,0.6125 -1.875,1.7125 l 0,9.35 -1.2,0 0,-18.1875 1.2,0 0,7.85 z"
           inkscape:connector-curvature="0" />
        <path
           id="path4404"
           style="font-style:normal;font-variant:normal;font-weight:300;font-stretch:normal;font-size:25px;font-family:Lato;-inkscape-font-specification:'Lato Light';letter-spacing:-2.32000113px;fill:#ffffff;fill-opacity:1"
           d="m 321.14367,56.990234 0,12.4375 -0.6625,0 q -0.3125,0 -0.3625,-0.325 l -0.1125,-1.85 q -0.8625,1.075 -2,1.725 -1.125,0.65 -2.5125,0.65 -1.0375,0 -1.8125,-0.325 -0.775,-0.325 -1.2875,-0.9375 -0.5125,-0.6125 -0.775,-1.475 -0.2625,-0.8625 -0.2625,-1.95 l 0,-7.95 1.2,0 0,7.95 q 0,1.75 0.8,2.75 0.8,0.9875 2.4375,0.9875 1.2125,0 2.2625,-0.6125 1.0625,-0.625 1.8875,-1.725 l 0,-9.35 1.2,0 z"
           inkscape:connector-curvature="0" />
        <path
           id="path4406"
           style="font-style:normal;font-variant:normal;font-weight:300;font-stretch:normal;font-size:25px;font-family:Lato;-inkscape-font-specification:'Lato Light';letter-spacing:-2.32000113px;fill:#ffffff;fill-opacity:1"
           d="m 322.89437,69.427734 0,-12.4375 0.6625,0 q 0.3125,0 0.3625,0.3125 l 0.1125,1.8 q 0.725,-1.0375 1.6625,-1.675 0.9375,-0.6375 2.1125,-0.6375 1.3625,0 2.175,0.7875 0.825,0.7875 1.1125,2.1875 0.225,-0.7625 0.625,-1.325 0.4125,-0.5625 0.9375,-0.925 0.525,-0.375 1.1375,-0.55 0.625,-0.175 1.275,-0.175 0.925,0 1.6625,0.3125 0.7375,0.3 1.25,0.9 0.5125,0.6 0.7875,1.475 0.275,0.875 0.275,2 l 0,7.95 -1.1875,0 0,-7.95 q 0,-1.825 -0.7875,-2.775 -0.7875,-0.9625 -2.25,-0.9625 -0.65,0 -1.25,0.2375 -0.5875,0.2375 -1.05,0.7125 -0.45,0.4625 -0.725,1.1625 -0.2625,0.7 -0.2625,1.625 l 0,7.95 -1.2,0 0,-7.95 q 0,-1.8125 -0.725,-2.775 -0.7125,-0.9625 -2.1,-0.9625 -1.0125,0 -1.875,0.6 -0.8625,0.6 -1.5375,1.6625 l 0,9.425 -1.2,0 z"
           inkscape:connector-curvature="0" />
        <path
           id="path4408"
           style="font-style:normal;font-variant:normal;font-weight:300;font-stretch:normal;font-size:25px;font-family:Lato;-inkscape-font-specification:'Lato Light';letter-spacing:-2.32000113px;fill:#ffffff;fill-opacity:1"
           d="m 347.65406,63.415234 q -1.775,0.0625 -3.0625,0.2875 -1.275,0.2125 -2.1125,0.5875 -0.825,0.375 -1.225,0.9 -0.4,0.5125 -0.4,1.175 0,0.625 0.2,1.0875 0.2125,0.45 0.55,0.75 0.35,0.2875 0.8,0.425 0.45,0.1375 0.9375,0.1375 0.725,0 1.325,-0.15 0.6125,-0.1625 1.125,-0.4375 0.525,-0.2875 0.975,-0.675 0.45,-0.3875 0.8875,-0.8375 l 0,-3.25 z m -7.3125,-4.6625 q 0.975,-0.975 2.05,-1.475 1.075,-0.5 2.4375,-0.5 1,0 1.75,0.325 0.75,0.3125 1.2375,0.9125 0.5,0.5875 0.75,1.4375 0.25,0.8375 0.25,1.875 l 0,8.1 -0.475,0 q -0.375,0 -0.4625,-0.35 l -0.175,-1.6 q -0.5125,0.5 -1.025,0.9 -0.5,0.4 -1.05,0.675 -0.55,0.275 -1.1875,0.425 -0.6375,0.15 -1.4,0.15 -0.6375,0 -1.2375,-0.1875 -0.6,-0.1875 -1.075,-0.575 -0.4625,-0.3875 -0.75,-0.9875 -0.275,-0.6125 -0.275,-1.4625 0,-0.7875 0.45,-1.4625 0.45,-0.675 1.4125,-1.175 0.9625,-0.5 2.4625,-0.8 1.5125,-0.3 3.625,-0.35 l 0,-1.3 q 0,-1.725 -0.75,-2.65 -0.7375,-0.9375 -2.2,-0.9375 -0.9,0 -1.5375,0.25 -0.625,0.25 -1.0625,0.55 -0.4375,0.3 -0.7125,0.55 -0.275,0.25 -0.4625,0.25 -0.1375,0 -0.225,-0.0625 -0.0875,-0.0625 -0.15,-0.1625 l -0.2125,-0.3625 z"
           inkscape:connector-curvature="0" />
        <path
           id="path4410"
           style="font-style:normal;font-variant:normal;font-weight:300;font-stretch:normal;font-size:25px;font-family:Lato;-inkscape-font-specification:'Lato Light';letter-spacing:-2.32000113px;fill:#ffffff;fill-opacity:1"
           d="m 351.61843,59.165234 q 0.8625,-1.075 1.9875,-1.725 1.1375,-0.65 2.525,-0.65 1.025,0 1.8,0.325 0.7875,0.325 1.3,0.9375 0.5125,0.6125 0.775,1.475 0.2625,0.8625 0.2625,1.95 l 0,7.95 -1.2,0 0,-7.95 q 0,-1.75 -0.8,-2.7375 -0.8,-1 -2.4375,-1 -1.2125,0 -2.275,0.625 -1.05,0.6125 -1.875,1.7125 l 0,9.35 -1.2,0 0,-12.4375 0.6625,0 q 0.3125,0 0.3625,0.3125 l 0.1125,1.8625 z"
           inkscape:connector-curvature="0" />
        <path
           id="path4412"
           style="font-style:normal;font-variant:normal;font-weight:300;font-stretch:normal;font-size:25px;font-family:Lato;-inkscape-font-specification:'Lato Light';letter-spacing:-2.32000113px;fill:#ffffff;fill-opacity:1"
           d="m 363.25546,56.990234 0,12.4375 -1.1875,0 0,-12.4375 1.1875,0 z m 0.5125,-4.2875 q 0,0.225 -0.1,0.425 -0.0875,0.1875 -0.2375,0.3375 -0.15,0.15 -0.35,0.2375 -0.2,0.0875 -0.425,0.0875 -0.225,0 -0.425,-0.0875 -0.2,-0.0875 -0.35,-0.2375 -0.15,-0.15 -0.2375,-0.3375 -0.0875,-0.2 -0.0875,-0.425 0,-0.225 0.0875,-0.425 0.0875,-0.2125 0.2375,-0.3625 0.15,-0.15 0.35,-0.2375 0.2,-0.0875 0.425,-0.0875 0.225,0 0.425,0.0875 0.2,0.0875 0.35,0.2375 0.15,0.15 0.2375,0.3625 0.1,0.2 0.1,0.425 z"
           inkscape:connector-curvature="0" />
        <path
           id="path4414"
           style="font-style:normal;font-variant:normal;font-weight:300;font-stretch:normal;font-size:25px;font-family:Lato;-inkscape-font-specification:'Lato Light';letter-spacing:-2.32000113px;fill:#ffffff;fill-opacity:1"
           d="m 372.01437,58.527734 q -0.1,0.175 -0.2875,0.175 -0.1375,0 -0.35,-0.15 -0.2125,-0.1625 -0.575,-0.35 -0.35,-0.2 -0.875,-0.35 -0.525,-0.1625 -1.275,-0.1625 -0.675,0 -1.2375,0.2 -0.55,0.1875 -0.95,0.5125 -0.3875,0.325 -0.6,0.7625 -0.2125,0.425 -0.2125,0.9 0,0.5875 0.3,0.975 0.3,0.3875 0.775,0.6625 0.4875,0.275 1.1125,0.475 0.625,0.2 1.2625,0.4 0.65,0.2 1.275,0.45 0.625,0.2375 1.1,0.6 0.4875,0.3625 0.7875,0.8875 0.3,0.525 0.3,1.275 0,0.8125 -0.2875,1.5125 -0.2875,0.7 -0.85,1.2125 -0.55,0.5125 -1.3625,0.8125 -0.8125,0.3 -1.8625,0.3 -1.3125,0 -2.2625,-0.4125 -0.95,-0.425 -1.7,-1.1 l 0.275,-0.425 q 0.0625,-0.1 0.1375,-0.15 0.0875,-0.05 0.225,-0.05 0.1625,0 0.3875,0.2 0.2375,0.2 0.625,0.4375 0.3875,0.225 0.95,0.425 0.575,0.2 1.4125,0.2 0.7875,0 1.3875,-0.2125 0.6,-0.225 1,-0.6 0.4,-0.375 0.6,-0.875 0.2125,-0.5125 0.2125,-1.075 0,-0.625 -0.3,-1.0375 -0.3,-0.4125 -0.7875,-0.7 -0.4875,-0.2875 -1.1125,-0.4875 -0.6125,-0.2 -1.2625,-0.4 -0.65,-0.2 -1.275,-0.4375 -0.6125,-0.2375 -1.1,-0.6 -0.4875,-0.3625 -0.7875,-0.875 -0.3,-0.525 -0.3,-1.3 0,-0.6625 0.2875,-1.275 0.2875,-0.6125 0.8125,-1.075 0.5375,-0.4625 1.3,-0.7375 0.7625,-0.275 1.7125,-0.275 1.1375,0 2.0125,0.325 0.8875,0.325 1.6125,1 l -0.25,0.4125 z"
           inkscape:connector-curvature="0" />
        <path
           id="path4416"
           style="font-style:normal;font-variant:normal;font-weight:300;font-stretch:normal;font-size:25px;font-family:Lato;-inkscape-font-specification:'Lato Light';letter-spacing:-2.32000113px;fill:#ffffff;fill-opacity:1"
           d="m 376.9014,69.627734 q -1.2625,0 -1.975,-0.7 -0.7,-0.7 -0.7,-2.1625 l 0,-8.5 -1.7875,0 q -0.1375,0 -0.225,-0.075 -0.0875,-0.075 -0.0875,-0.2125 l 0,-0.4625 2.125,-0.15 0.3,-4.45 q 0.025,-0.1125 0.1,-0.2 0.075,-0.0875 0.2125,-0.0875 l 0.5625,0 0,4.75 3.925,0 0,0.8875 -3.925,0 0,8.4375 q 0,0.5125 0.125,0.8875 0.1375,0.3625 0.3625,0.6 0.2375,0.2375 0.55,0.35 0.3125,0.1125 0.675,0.1125 0.45,0 0.775,-0.125 0.325,-0.1375 0.5625,-0.2875 0.2375,-0.1625 0.3875,-0.2875 0.15,-0.1375 0.2375,-0.1375 0.1,0 0.2,0.125 l 0.325,0.525 q -0.475,0.525 -1.2125,0.85 -0.725,0.3125 -1.5125,0.3125 z"
           inkscape:connector-curvature="0" />
        <path
           id="path4418"
           style="font-style:normal;font-variant:normal;font-weight:300;font-stretch:normal;font-size:25px;font-family:Lato;-inkscape-font-specification:'Lato Light';letter-spacing:-2.32000113px;fill:#ffffff;fill-opacity:1"
           d="m 388.03999,58.652734 q -0.0625,0.0625 -0.125,0.1125 -0.05,0.0375 -0.15,0.0375 -0.125,0 -0.3375,-0.1625 -0.2125,-0.175 -0.575,-0.375 -0.3625,-0.2 -0.9125,-0.3625 -0.5375,-0.175 -1.3125,-0.175 -1.075,0 -1.9125,0.3875 -0.825,0.375 -1.4,1.0875 -0.575,0.7125 -0.875,1.725 -0.2875,1.0125 -0.2875,2.275 0,1.3125 0.3,2.325 0.3125,1.0125 0.875,1.7125 0.5625,0.6875 1.3625,1.05 0.8,0.3625 1.775,0.3625 0.9,0 1.5,-0.2125 0.6125,-0.2125 1,-0.4625 0.4,-0.25 0.625,-0.4625 0.225,-0.2125 0.375,-0.2125 0.15,0 0.25,0.125 l 0.3125,0.4 q -0.2875,0.375 -0.725,0.7 -0.4375,0.325 -0.9875,0.5625 -0.55,0.2375 -1.2,0.3625 -0.6375,0.1375 -1.3375,0.1375 -1.1875,0 -2.175,-0.425 -0.975,-0.4375 -1.6875,-1.25 -0.7,-0.825 -1.1,-2.0125 -0.3875,-1.1875 -0.3875,-2.7 0,-1.425 0.375,-2.6 0.375,-1.175 1.1,-2.025 0.725,-0.85 1.7625,-1.3125 1.05,-0.475 2.4,-0.475 1.2125,0 2.15,0.3875 0.9375,0.3875 1.6375,1.05 l -0.3125,0.425 z"
           inkscape:connector-curvature="0" />
        <path
           id="path4420"
           style="font-style:normal;font-variant:normal;font-weight:300;font-stretch:normal;font-size:25px;font-family:Lato;-inkscape-font-specification:'Lato Light';letter-spacing:-2.32000113px;fill:#ffffff;fill-opacity:1"
           d="m 396.08757,63.415234 q -1.775,0.0625 -3.0625,0.2875 -1.275,0.2125 -2.1125,0.5875 -0.825,0.375 -1.225,0.9 -0.4,0.5125 -0.4,1.175 0,0.625 0.2,1.0875 0.2125,0.45 0.55,0.75 0.35,0.2875 0.8,0.425 0.45,0.1375 0.9375,0.1375 0.725,0 1.325,-0.15 0.6125,-0.1625 1.125,-0.4375 0.525,-0.2875 0.975,-0.675 0.45,-0.3875 0.8875,-0.8375 l 0,-3.25 z m -7.3125,-4.6625 q 0.975,-0.975 2.05,-1.475 1.075,-0.5 2.4375,-0.5 1,0 1.75,0.325 0.75,0.3125 1.2375,0.9125 0.5,0.5875 0.75,1.4375 0.25,0.8375 0.25,1.875 l 0,8.1 -0.475,0 q -0.375,0 -0.4625,-0.35 l -0.175,-1.6 q -0.5125,0.5 -1.025,0.9 -0.5,0.4 -1.05,0.675 -0.55,0.275 -1.1875,0.425 -0.6375,0.15 -1.4,0.15 -0.6375,0 -1.2375,-0.1875 -0.6,-0.1875 -1.075,-0.575 -0.4625,-0.3875 -0.75,-0.9875 -0.275,-0.6125 -0.275,-1.4625 0,-0.7875 0.45,-1.4625 0.45,-0.675 1.4125,-1.175 0.9625,-0.5 2.4625,-0.8 1.5125,-0.3 3.625,-0.35 l 0,-1.3 q 0,-1.725 -0.75,-2.65 -0.7375,-0.9375 -2.2,-0.9375 -0.9,0 -1.5375,0.25 -0.625,0.25 -1.0625,0.55 -0.4375,0.3 -0.7125,0.55 -0.275,0.25 -0.4625,0.25 -0.1375,0 -0.225,-0.0625 -0.0875,-0.0625 -0.15,-0.1625 l -0.2125,-0.3625 z"
           inkscape:connector-curvature="0" />
        <path
           id="path4422"
           style="font-style:normal;font-variant:normal;font-weight:300;font-stretch:normal;font-size:25px;font-family:Lato;-inkscape-font-specification:'Lato Light';letter-spacing:-2.32000113px;fill:#ffffff;fill-opacity:1"
           d="m 400.05194,59.165234 q 0.8625,-1.075 1.9875,-1.725 1.1375,-0.65 2.525,-0.65 1.025,0 1.8,0.325 0.7875,0.325 1.3,0.9375 0.5125,0.6125 0.775,1.475 0.2625,0.8625 0.2625,1.95 l 0,7.95 -1.2,0 0,-7.95 q 0,-1.75 -0.8,-2.7375 -0.8,-1 -2.4375,-1 -1.2125,0 -2.275,0.625 -1.05,0.6125 -1.875,1.7125 l 0,9.35 -1.2,0 0,-12.4375 0.6625,0 q 0.3125,0 0.3625,0.3125 l 0.1125,1.8625 z"
           inkscape:connector-curvature="0" />
        <path
           id="path4424"
           style="font-style:normal;font-variant:normal;font-weight:300;font-stretch:normal;font-size:25px;font-family:Lato;-inkscape-font-specification:'Lato Light';letter-spacing:-2.32000113px;fill:#ffffff;fill-opacity:1"
           d="m 418.72647,58.652734 q -0.0625,0.0625 -0.125,0.1125 -0.05,0.0375 -0.15,0.0375 -0.125,0 -0.3375,-0.1625 -0.2125,-0.175 -0.575,-0.375 -0.3625,-0.2 -0.9125,-0.3625 -0.5375,-0.175 -1.3125,-0.175 -1.075,0 -1.9125,0.3875 -0.825,0.375 -1.4,1.0875 -0.575,0.7125 -0.875,1.725 -0.2875,1.0125 -0.2875,2.275 0,1.3125 0.3,2.325 0.3125,1.0125 0.875,1.7125 0.5625,0.6875 1.3625,1.05 0.8,0.3625 1.775,0.3625 0.9,0 1.5,-0.2125 0.6125,-0.2125 1,-0.4625 0.4,-0.25 0.625,-0.4625 0.225,-0.2125 0.375,-0.2125 0.15,0 0.25,0.125 l 0.3125,0.4 q -0.2875,0.375 -0.725,0.7 -0.4375,0.325 -0.9875,0.5625 -0.55,0.2375 -1.2,0.3625 -0.6375,0.1375 -1.3375,0.1375 -1.1875,0 -2.175,-0.425 -0.975,-0.4375 -1.6875,-1.25 -0.7,-0.825 -1.1,-2.0125 -0.3875,-1.1875 -0.3875,-2.7 0,-1.425 0.375,-2.6 0.375,-1.175 1.1,-2.025 0.725,-0.85 1.7625,-1.3125 1.05,-0.475 2.4,-0.475 1.2125,0 2.15,0.3875 0.9375,0.3875 1.6375,1.05 l -0.3125,0.425 z"
           inkscape:connector-curvature="0" />
        <path
           id="path4426"
           style="font-style:normal;font-variant:normal;font-weight:300;font-stretch:normal;font-size:25px;font-family:Lato;-inkscape-font-specification:'Lato Light';letter-spacing:-2.32000113px;fill:#ffffff;fill-opacity:1"
           d="m 424.49241,56.790234 q 1.3375,0 2.3875,0.4625 1.0625,0.45 1.7875,1.2875 0.725,0.8375 1.1,2.025 0.3875,1.175 0.3875,2.6375 0,1.4625 -0.3875,2.6375 -0.375,1.175 -1.1,2.0125 -0.725,0.8375 -1.7875,1.2875 -1.05,0.45 -2.3875,0.45 -1.3375,0 -2.4,-0.45 -1.05,-0.45 -1.7875,-1.2875 -0.725,-0.8375 -1.1125,-2.0125 -0.375,-1.175 -0.375,-2.6375 0,-1.4625 0.375,-2.6375 0.3875,-1.1875 1.1125,-2.025 0.7375,-0.8375 1.7875,-1.2875 1.0625,-0.4625 2.4,-0.4625 z m 0,11.8625 q 1.1125,0 1.9375,-0.375 0.8375,-0.3875 1.3875,-1.1 0.5625,-0.7125 0.8375,-1.7125 0.275,-1.0125 0.275,-2.2625 0,-1.2375 -0.275,-2.25 -0.275,-1.0125 -0.8375,-1.725 -0.55,-0.725 -1.3875,-1.1125 -0.825,-0.3875 -1.9375,-0.3875 -1.1125,0 -1.95,0.3875 -0.825,0.3875 -1.3875,1.1125 -0.55,0.7125 -0.8375,1.725 -0.275,1.0125 -0.275,2.25 0,1.25 0.275,2.2625 0.2875,1 0.8375,1.7125 0.5625,0.7125 1.3875,1.1 0.8375,0.375 1.95,0.375 z"
           inkscape:connector-curvature="0" />
        <path
           id="path4428"
           style="font-style:normal;font-variant:normal;font-weight:300;font-stretch:normal;font-size:25px;font-family:Lato;-inkscape-font-specification:'Lato Light';letter-spacing:-2.32000113px;fill:#ffffff;fill-opacity:1"
           d="m 430.92475,68.465234 q 0,-0.2375 0.0875,-0.45 0.0875,-0.2125 0.2375,-0.3625 0.1625,-0.1625 0.3625,-0.25 0.2125,-0.1 0.4625,-0.1 0.2375,0 0.45,0.1 0.2125,0.0875 0.3625,0.25 0.1625,0.15 0.25,0.3625 0.1,0.2125 0.1,0.45 0,0.25 -0.1,0.4625 -0.0875,0.2 -0.25,0.3625 -0.15,0.15 -0.3625,0.2375 -0.2125,0.0875 -0.45,0.0875 -0.4875,0 -0.825,-0.325 -0.325,-0.3375 -0.325,-0.825 z"
           inkscape:connector-curvature="0" />
        <path
           id="path4430"
           style="font-style:normal;font-variant:normal;font-weight:300;font-stretch:normal;font-size:25px;font-family:Lato;-inkscape-font-specification:'Lato Light';letter-spacing:-2.32000113px;fill:#ffffff;fill-opacity:1"
           d="m 443.23913,59.665234 q -0.7125,-1.075 -1.5875,-1.5125 -0.8625,-0.4375 -1.975,-0.4375 -1.1,0 -1.925,0.4 -0.825,0.4 -1.3875,1.1375 -0.55,0.725 -0.8375,1.75 -0.275,1.0125 -0.275,2.2375 0,2.775 1.0125,4.0875 1.025,1.3 2.95,1.3 1.225,0 2.2375,-0.6375 1.0125,-0.6375 1.7875,-1.7875 l 0,-6.5375 z m 1.1875,-8.425 0,18.1875 -0.65,0 q -0.325,0 -0.375,-0.325 l -0.125,-1.9625 q -0.825,1.125 -1.925,1.7875 -1.1,0.6625 -2.475,0.6625 -2.3,0 -3.575,-1.5875 -1.275,-1.5875 -1.275,-4.7625 0,-1.3625 0.35,-2.5375 0.3625,-1.1875 1.05,-2.05 0.6875,-0.875 1.6875,-1.375 1.0125,-0.5 2.325,-0.5 1.2625,0 2.1875,0.4625 0.925,0.4625 1.6125,1.375 l 0,-7.375 1.1875,0 z"
           inkscape:connector-curvature="0" />
        <path
           id="path4432"
           style="font-style:normal;font-variant:normal;font-weight:300;font-stretch:normal;font-size:25px;font-family:Lato;-inkscape-font-specification:'Lato Light';letter-spacing:-2.32000113px;fill:#ffffff;fill-opacity:1"
           d="m 454.92615,61.952734 q 0,-1 -0.2875,-1.7875 -0.275,-0.8 -0.7875,-1.35 -0.5125,-0.55 -1.225,-0.8375 -0.7,-0.3 -1.55,-0.3 -0.9625,0 -1.725,0.3 -0.7625,0.3 -1.325,0.8625 -0.55,0.5625 -0.8875,1.35 -0.3375,0.7875 -0.45,1.7625 l 8.2375,0 z m -8.3,0.7625 0,0.2375 q 0,1.4 0.325,2.4625 0.325,1.0625 0.925,1.7875 0.6,0.7125 1.45,1.075 0.85,0.3625 1.9,0.3625 0.9375,0 1.625,-0.2 0.6875,-0.2125 1.15,-0.4625 0.475,-0.2625 0.75,-0.4625 0.275,-0.2125 0.4,-0.2125 0.1625,0 0.25,0.125 l 0.325,0.4 q -0.3,0.375 -0.8,0.7 -0.4875,0.325 -1.1,0.5625 -0.6,0.225 -1.3,0.3625 -0.6875,0.1375 -1.3875,0.1375 -1.275,0 -2.325,-0.4375 -1.05,-0.45 -1.8,-1.3 -0.75,-0.85 -1.1625,-2.075 -0.4,-1.2375 -0.4,-2.825 0,-1.3375 0.375,-2.4625 0.3875,-1.1375 1.1,-1.95 0.725,-0.825 1.7625,-1.2875 1.05,-0.4625 2.375,-0.4625 1.05,0 1.95,0.3625 0.9,0.3625 1.5625,1.0625 0.6625,0.6875 1.0375,1.7 0.3875,1.0125 0.3875,2.325 0,0.275 -0.075,0.375 -0.075,0.1 -0.25,0.1 l -9.05,0 z"
           inkscape:connector-curvature="0" />
      </g>
      <g
         id="flowRoot4170"
         style="font-style:normal;font-weight:normal;font-size:5px;line-height:125%;font-family:sans-serif;letter-spacing:0px;word-spacing:0px;fill:#000000;fill-opacity:1;stroke:none;stroke-width:1px;stroke-linecap:butt;stroke-linejoin:miter;stroke-opacity:1" />
      <g
         id="flowRoot4178"
         style="font-style:normal;font-variant:normal;font-weight:300;font-stretch:normal;font-size:5px;line-height:125%;font-family:Lato;-inkscape-font-specification:'Lato Light';letter-spacing:-5.44999981px;word-spacing:0px;fill:#000000;fill-opacity:1;stroke:none;stroke-width:1px;stroke-linecap:butt;stroke-linejoin:miter;stroke-opacity:1"
         transform="translate(-145.96705,172.73609)">
        <path
           id="path4436"
           style="font-style:normal;font-variant:normal;font-weight:300;font-stretch:normal;font-size:17.5px;font-family:Lato;-inkscape-font-specification:'Lato Light';letter-spacing:-1.1400001px;fill:#ffffff;fill-opacity:1"
           d="m 300.26914,59.818047 q 0.5075,0.7525 1.11125,1.05875 0.6125,0.2975 1.37375,0.2975 0.77875,0 1.35625,-0.28 0.58625,-0.28 0.97125,-0.79625 0.39375,-0.525 0.58625,-1.26875 0.1925,-0.74375 0.1925,-1.67125 0,-1.8025 -0.7175,-2.7125 -0.7175,-0.91 -2.0125,-0.91 -0.9275,0 -1.61875,0.44625 -0.69125,0.44625 -1.2425,1.2425 l 0,4.59375 z m 0,-5.29375 q 0.56875,-0.77 1.33,-1.2075 0.76125,-0.44625 1.7675,-0.44625 0.7875,0 1.40875,0.28875 0.62125,0.28875 1.05,0.83125 0.4375,0.5425 0.665,1.33875 0.2275,0.7875 0.2275,1.79375 0,1.05875 -0.25375,1.93375 -0.25375,0.86625 -0.74375,1.4875 -0.48125,0.6125 -1.18125,0.95375 -0.7,0.3325 -1.60125,0.3325 -0.9275,0 -1.58375,-0.35 -0.6475,-0.35875 -1.12,-1.05875 l -0.0613,1.07625 q -0.0263,0.21875 -0.23625,0.21875 l -0.5075,0 0,-12.73125 0.84,0 0,5.53875 z"
           inkscape:connector-curvature="0" />
        <path
           id="path4438"
           style="font-style:normal;font-variant:normal;font-weight:300;font-stretch:normal;font-size:17.5px;font-family:Lato;-inkscape-font-specification:'Lato Light';letter-spacing:-1.1400001px;fill:#ffffff;fill-opacity:1"
           d="m 314.75773,53.010547 -5.005,11.50625 q -0.0525,0.1225 -0.14,0.20125 -0.0788,0.07875 -0.23625,0.07875 l -0.595,0 1.53125,-3.40375 -3.68375,-8.3825 0.69125,0 q 0.13125,0 0.21,0.07 0.0787,0.06125 0.105,0.14 l 2.93125,6.7725 q 0.0525,0.13125 0.0875,0.27125 0.0437,0.13125 0.0788,0.27125 0.0437,-0.14 0.0875,-0.27125 0.0525,-0.14 0.105,-0.27125 l 2.89625,-6.7725 q 0.0437,-0.09625 0.1225,-0.14875 0.0788,-0.06125 0.175,-0.06125 l 0.63875,0 z"
           inkscape:connector-curvature="0" />
        <path
           id="path4440"
           style="font-style:normal;font-variant:normal;font-weight:300;font-stretch:normal;font-size:17.5px;font-family:Lato;-inkscape-font-specification:'Lato Light';letter-spacing:-1.1400001px;fill:#ffffff;fill-opacity:1"
           d="m 322.13336,57.586797 q 0,1.04125 -0.25375,1.8375 -0.25375,0.79625 -0.735,1.33875 -0.48125,0.5425 -1.16375,0.8225 -0.6825,0.27125 -1.54,0.27125 -0.39375,0 -0.79625,-0.06125 -0.4025,-0.06125 -0.83125,-0.1925 0.009,-0.1225 0.0175,-0.245 0.0175,-0.1225 0.035,-0.245 0.0175,-0.07875 0.0613,-0.14 0.0525,-0.06125 0.175,-0.06125 0.0788,0 0.18375,0.035 0.11375,0.02625 0.2625,0.06125 0.14875,0.035 0.35,0.07 0.20125,0.02625 0.46375,0.02625 0.665,0 1.19875,-0.21 0.53375,-0.21 0.91,-0.63875 0.37625,-0.4375 0.56875,-1.09375 0.20125,-0.665 0.20125,-1.5575 l 0,-8.26875 0.8925,0 0,8.25125 z"
           inkscape:connector-curvature="0" />
        <path
           id="path4442"
           style="font-style:normal;font-variant:normal;font-weight:300;font-stretch:normal;font-size:17.5px;font-family:Lato;-inkscape-font-specification:'Lato Light';letter-spacing:-1.1400001px;fill:#ffffff;fill-opacity:1"
           d="m 328.62473,57.508047 q -1.2425,0.04375 -2.14375,0.20125 -0.8925,0.14875 -1.47875,0.41125 -0.5775,0.2625 -0.8575,0.63 -0.28,0.35875 -0.28,0.8225 0,0.4375 0.14,0.76125 0.14875,0.315 0.385,0.525 0.245,0.20125 0.56,0.2975 0.315,0.09625 0.65625,0.09625 0.5075,0 0.9275,-0.105 0.42875,-0.11375 0.7875,-0.30625 0.3675,-0.20125 0.6825,-0.4725 0.315,-0.27125 0.62125,-0.58625 l 0,-2.275 z m -5.11875,-3.26375 q 0.6825,-0.6825 1.435,-1.0325 0.7525,-0.35 1.70625,-0.35 0.7,0 1.225,0.2275 0.525,0.21875 0.86625,0.63875 0.35,0.41125 0.525,1.00625 0.175,0.58625 0.175,1.3125 l 0,5.67 -0.3325,0 q -0.2625,0 -0.32375,-0.245 l -0.1225,-1.12 q -0.35875,0.35 -0.7175,0.63 -0.35,0.28 -0.735,0.4725 -0.385,0.1925 -0.83125,0.2975 -0.44625,0.105 -0.98,0.105 -0.44625,0 -0.86625,-0.13125 -0.42,-0.13125 -0.7525,-0.4025 -0.32375,-0.27125 -0.525,-0.69125 -0.1925,-0.42875 -0.1925,-1.02375 0,-0.55125 0.315,-1.02375 0.315,-0.4725 0.98875,-0.8225 0.67375,-0.35 1.72375,-0.56 1.05875,-0.21 2.5375,-0.245 l 0,-0.91 q 0,-1.2075 -0.525,-1.855 -0.51625,-0.65625 -1.54,-0.65625 -0.63,0 -1.07625,0.175 -0.4375,0.175 -0.74375,0.385 -0.30625,0.21 -0.49875,0.385 -0.1925,0.175 -0.32375,0.175 -0.0962,0 -0.1575,-0.04375 -0.0612,-0.04375 -0.105,-0.11375 l -0.14875,-0.25375 z"
           inkscape:connector-curvature="0" />
        <path
           id="path4444"
           style="font-style:normal;font-variant:normal;font-weight:300;font-stretch:normal;font-size:17.5px;font-family:Lato;-inkscape-font-specification:'Lato Light';letter-spacing:-1.1400001px;fill:#ffffff;fill-opacity:1"
           d="m 331.88379,54.533047 q 0.60375,-0.7525 1.39125,-1.2075 0.79625,-0.455 1.7675,-0.455 0.7175,0 1.26,0.2275 0.55125,0.2275 0.91,0.65625 0.35875,0.42875 0.5425,1.0325 0.18375,0.60375 0.18375,1.365 l 0,5.565 -0.84,0 0,-5.565 q 0,-1.225 -0.56,-1.91625 -0.56,-0.7 -1.70625,-0.7 -0.84875,0 -1.5925,0.4375 -0.735,0.42875 -1.3125,1.19875 l 0,6.545 -0.84,0 0,-8.70625 0.46375,0 q 0.21875,0 0.25375,0.21875 l 0.0787,1.30375 z"
           inkscape:connector-curvature="0" />
        <path
           id="path4446"
           style="font-style:normal;font-variant:normal;font-weight:300;font-stretch:normal;font-size:17.5px;font-family:Lato;-inkscape-font-specification:'Lato Light';letter-spacing:-1.1400001px;fill:#ffffff;fill-opacity:1"
           d="m 346.79699,57.586797 q 0,1.04125 -0.25375,1.8375 -0.25375,0.79625 -0.735,1.33875 -0.48125,0.5425 -1.16375,0.8225 -0.6825,0.27125 -1.54,0.27125 -0.39375,0 -0.79625,-0.06125 -0.4025,-0.06125 -0.83125,-0.1925 0.009,-0.1225 0.0175,-0.245 0.0175,-0.1225 0.035,-0.245 0.0175,-0.07875 0.0612,-0.14 0.0525,-0.06125 0.175,-0.06125 0.0788,0 0.18375,0.035 0.11375,0.02625 0.2625,0.06125 0.14875,0.035 0.35,0.07 0.20125,0.02625 0.46375,0.02625 0.665,0 1.19875,-0.21 0.53375,-0.21 0.91,-0.63875 0.37625,-0.4375 0.56875,-1.09375 0.20125,-0.665 0.20125,-1.5575 l 0,-8.26875 0.8925,0 0,8.25125 z"
           inkscape:connector-curvature="0" />
        <path
           id="path4448"
           style="font-style:normal;font-variant:normal;font-weight:300;font-stretch:normal;font-size:17.5px;font-family:Lato;-inkscape-font-specification:'Lato Light';letter-spacing:-1.1400001px;fill:#ffffff;fill-opacity:1"
           d="m 353.28836,57.508047 q -1.2425,0.04375 -2.14375,0.20125 -0.8925,0.14875 -1.47875,0.41125 -0.5775,0.2625 -0.8575,0.63 -0.28,0.35875 -0.28,0.8225 0,0.4375 0.14,0.76125 0.14875,0.315 0.385,0.525 0.245,0.20125 0.56,0.2975 0.315,0.09625 0.65625,0.09625 0.5075,0 0.9275,-0.105 0.42875,-0.11375 0.7875,-0.30625 0.3675,-0.20125 0.6825,-0.4725 0.315,-0.27125 0.62125,-0.58625 l 0,-2.275 z m -5.11875,-3.26375 q 0.6825,-0.6825 1.435,-1.0325 0.7525,-0.35 1.70625,-0.35 0.7,0 1.225,0.2275 0.525,0.21875 0.86625,0.63875 0.35,0.41125 0.525,1.00625 0.175,0.58625 0.175,1.3125 l 0,5.67 -0.3325,0 q -0.2625,0 -0.32375,-0.245 l -0.1225,-1.12 q -0.35875,0.35 -0.7175,0.63 -0.35,0.28 -0.735,0.4725 -0.385,0.1925 -0.83125,0.2975 -0.44625,0.105 -0.98,0.105 -0.44625,0 -0.86625,-0.13125 -0.42,-0.13125 -0.7525,-0.4025 -0.32375,-0.27125 -0.525,-0.69125 -0.1925,-0.42875 -0.1925,-1.02375 0,-0.55125 0.315,-1.02375 0.315,-0.4725 0.98875,-0.8225 0.67375,-0.35 1.72375,-0.56 1.05875,-0.21 2.5375,-0.245 l 0,-0.91 q 0,-1.2075 -0.525,-1.855 -0.51625,-0.65625 -1.54,-0.65625 -0.63,0 -1.07625,0.175 -0.4375,0.175 -0.74375,0.385 -0.30625,0.21 -0.49875,0.385 -0.1925,0.175 -0.32375,0.175 -0.0962,0 -0.1575,-0.04375 -0.0613,-0.04375 -0.105,-0.11375 l -0.14875,-0.25375 z"
           inkscape:connector-curvature="0" />
        <path
           id="path4450"
           style="font-style:normal;font-variant:normal;font-weight:300;font-stretch:normal;font-size:17.5px;font-family:Lato;-inkscape-font-specification:'Lato Light';letter-spacing:-1.1400001px;fill:#ffffff;fill-opacity:1"
           d="m 358.59492,57.866797 q 0.56,0 0.9975,-0.1575 0.4375,-0.16625 0.735,-0.455 0.2975,-0.28875 0.455,-0.69125 0.1575,-0.4025 0.1575,-0.8925 0,-0.49 -0.16625,-0.8925 -0.1575,-0.41125 -0.46375,-0.7 -0.2975,-0.28875 -0.735,-0.44625 -0.42875,-0.1575 -0.98,-0.1575 -0.55125,0 -0.98875,0.1575 -0.42875,0.1575 -0.735,0.44625 -0.2975,0.28875 -0.455,0.7 -0.1575,0.4025 -0.1575,0.8925 0,0.49 0.1575,0.8925 0.1575,0.4025 0.455,0.69125 0.30625,0.28875 0.735,0.455 0.4375,0.1575 0.98875,0.1575 z m 3.255,4.43625 q 0,-0.41125 -0.21875,-0.65625 -0.21,-0.25375 -0.56875,-0.39375 -0.35875,-0.14 -0.83125,-0.1925 -0.46375,-0.06125 -0.98,-0.0875 -0.5075,-0.02625 -1.02375,-0.0525 -0.51625,-0.02625 -0.97125,-0.105 -0.3325,0.13125 -0.6125,0.30625 -0.28,0.16625 -0.48125,0.385 -0.20125,0.21875 -0.315,0.4725 -0.11375,0.2625 -0.11375,0.56 0,0.385 0.1925,0.70875 0.20125,0.3325 0.5775,0.56875 0.385,0.245 0.93625,0.385 0.55125,0.14 1.26875,0.14 0.665,0 1.23375,-0.14875 0.5775,-0.14875 0.9975,-0.42 0.42875,-0.27125 0.665,-0.6475 0.245,-0.37625 0.245,-0.8225 z m 0.91,-8.9075 0,0.28875 q 0,0.1925 -0.245,0.23625 l -1.33,0.09625 q 0.245,0.3325 0.37625,0.74375 0.13125,0.41125 0.13125,0.8925 0,0.63 -0.2275,1.14625 -0.21875,0.5075 -0.63,0.875 -0.4025,0.35875 -0.98,0.56 -0.56875,0.20125 -1.26,0.20125 -0.74375,0 -1.35625,-0.2275 -0.3675,0.21 -0.58625,0.49875 -0.21,0.28 -0.21,0.56 0,0.37625 0.2625,0.5775 0.27125,0.20125 0.7,0.2975 0.4375,0.0875 0.98875,0.11375 0.56,0.02625 1.1375,0.06125 0.5775,0.02625 1.12875,0.105 0.56,0.07875 0.98875,0.28 0.4375,0.1925 0.7,0.55125 0.27125,0.35 0.27125,0.93625 0,0.5425 -0.27125,1.04125 -0.27125,0.49875 -0.7875,0.88375 -0.5075,0.385 -1.23375,0.6125 -0.72625,0.23625 -1.6275,0.23625 -0.91875,0 -1.61,-0.1925 -0.69125,-0.18375 -1.16375,-0.5075 -0.46375,-0.315 -0.7,-0.735 -0.23625,-0.42 -0.23625,-0.8925 0,-0.69125 0.455,-1.18125 0.455,-0.49875 1.2425,-0.77875 -0.4375,-0.14875 -0.70875,-0.42875 -0.2625,-0.28875 -0.2625,-0.77875 0,-0.18375 0.07,-0.385 0.07,-0.20125 0.21,-0.39375 0.14,-0.20125 0.34125,-0.37625 0.20125,-0.175 0.455,-0.315 -0.62125,-0.35875 -0.97125,-0.95375 -0.34125,-0.595 -0.34125,-1.39125 0,-0.63 0.21875,-1.1375 0.2275,-0.51625 0.63875,-0.88375 0.41125,-0.3675 0.98,-0.56875 0.5775,-0.20125 1.2775,-0.20125 0.5775,0 1.05875,0.14 0.49,0.14 0.875,0.39375 l 2.23125,0 z"
           inkscape:connector-curvature="0" />
        <path
           id="path4452"
           style="font-style:normal;font-variant:normal;font-weight:300;font-stretch:normal;font-size:17.5px;font-family:Lato;-inkscape-font-specification:'Lato Light';letter-spacing:-1.1400001px;fill:#ffffff;fill-opacity:1"
           d="m 364.45957,53.010547 0,8.70625 -0.83125,0 0,-8.70625 0.83125,0 z m 0.35875,-3.00125 q 0,0.1575 -0.07,0.2975 -0.0612,0.13125 -0.16625,0.23625 -0.105,0.105 -0.245,0.16625 -0.14,0.06125 -0.2975,0.06125 -0.1575,0 -0.2975,-0.06125 -0.14,-0.06125 -0.245,-0.16625 -0.105,-0.105 -0.16625,-0.23625 -0.0613,-0.14 -0.0613,-0.2975 0,-0.1575 0.0613,-0.2975 0.0612,-0.14875 0.16625,-0.25375 0.105,-0.105 0.245,-0.16625 0.14,-0.06125 0.2975,-0.06125 0.1575,0 0.2975,0.06125 0.14,0.06125 0.245,0.16625 0.105,0.105 0.16625,0.25375 0.07,0.14 0.07,0.2975 z"
           inkscape:connector-curvature="0" />
        <path
           id="path4454"
           style="font-style:normal;font-variant:normal;font-weight:300;font-stretch:normal;font-size:17.5px;font-family:Lato;-inkscape-font-specification:'Lato Light';letter-spacing:-1.1400001px;fill:#ffffff;fill-opacity:1"
           d="m 372.39605,56.484297 q 0,-0.7 -0.20125,-1.25125 -0.1925,-0.56 -0.55125,-0.945 -0.35875,-0.385 -0.8575,-0.58625 -0.49,-0.21 -1.085,-0.21 -0.67375,0 -1.2075,0.21 -0.53375,0.21 -0.9275,0.60375 -0.385,0.39375 -0.62125,0.945 -0.23625,0.55125 -0.315,1.23375 l 5.76625,0 z m -5.81,0.53375 0,0.16625 q 0,0.98 0.2275,1.72375 0.2275,0.74375 0.6475,1.25125 0.42,0.49875 1.015,0.7525 0.595,0.25375 1.33,0.25375 0.65625,0 1.1375,-0.14 0.48125,-0.14875 0.805,-0.32375 0.3325,-0.18375 0.525,-0.32375 0.1925,-0.14875 0.28,-0.14875 0.11375,0 0.175,0.0875 l 0.2275,0.28 q -0.21,0.2625 -0.56,0.49 -0.34125,0.2275 -0.77,0.39375 -0.42,0.1575 -0.91,0.25375 -0.48125,0.09625 -0.97125,0.09625 -0.8925,0 -1.6275,-0.30625 -0.735,-0.315 -1.26,-0.91 -0.525,-0.595 -0.81375,-1.4525 -0.28,-0.86625 -0.28,-1.9775 0,-0.93625 0.2625,-1.72375 0.27125,-0.79625 0.77,-1.365 0.5075,-0.5775 1.23375,-0.90125 0.735,-0.32375 1.6625,-0.32375 0.735,0 1.365,0.25375 0.63,0.25375 1.09375,0.74375 0.46375,0.48125 0.72625,1.19 0.27125,0.70875 0.27125,1.6275 0,0.1925 -0.0525,0.2625 -0.0525,0.07 -0.175,0.07 l -6.335,0 z"
           inkscape:connector-curvature="0" />
        <path
           id="path4456"
           style="font-style:normal;font-variant:normal;font-weight:300;font-stretch:normal;font-size:17.5px;font-family:Lato;-inkscape-font-specification:'Lato Light';letter-spacing:-1.1400001px;fill:#ffffff;fill-opacity:1"
           d="m 375.19328,48.985547 0,12.73125 -0.84,0 0,-12.73125 0.84,0 z"
           inkscape:connector-curvature="0" />
        <path
           id="path4458"
           style="font-style:normal;font-variant:normal;font-weight:300;font-stretch:normal;font-size:17.5px;font-family:Lato;-inkscape-font-specification:'Lato Light';letter-spacing:-1.1400001px;fill:#ffffff;fill-opacity:1"
           d="m 381.87059,57.508047 q -1.2425,0.04375 -2.14375,0.20125 -0.8925,0.14875 -1.47875,0.41125 -0.5775,0.2625 -0.8575,0.63 -0.28,0.35875 -0.28,0.8225 0,0.4375 0.14,0.76125 0.14875,0.315 0.385,0.525 0.245,0.20125 0.56,0.2975 0.315,0.09625 0.65625,0.09625 0.5075,0 0.9275,-0.105 0.42875,-0.11375 0.7875,-0.30625 0.3675,-0.20125 0.6825,-0.4725 0.315,-0.27125 0.62125,-0.58625 l 0,-2.275 z m -5.11875,-3.26375 q 0.6825,-0.6825 1.435,-1.0325 0.7525,-0.35 1.70625,-0.35 0.7,0 1.225,0.2275 0.525,0.21875 0.86625,0.63875 0.35,0.41125 0.525,1.00625 0.175,0.58625 0.175,1.3125 l 0,5.67 -0.3325,0 q -0.2625,0 -0.32375,-0.245 l -0.1225,-1.12 q -0.35875,0.35 -0.7175,0.63 -0.35,0.28 -0.735,0.4725 -0.385,0.1925 -0.83125,0.2975 -0.44625,0.105 -0.98,0.105 -0.44625,0 -0.86625,-0.13125 -0.42,-0.13125 -0.7525,-0.4025 -0.32375,-0.27125 -0.525,-0.69125 -0.1925,-0.42875 -0.1925,-1.02375 0,-0.55125 0.315,-1.02375 0.315,-0.4725 0.98875,-0.8225 0.67375,-0.35 1.72375,-0.56 1.05875,-0.21 2.5375,-0.245 l 0,-0.91 q 0,-1.2075 -0.525,-1.855 -0.51625,-0.65625 -1.54,-0.65625 -0.63,0 -1.07625,0.175 -0.4375,0.175 -0.74375,0.385 -0.30625,0.21 -0.49875,0.385 -0.1925,0.175 -0.32375,0.175 -0.0962,0 -0.1575,-0.04375 -0.0612,-0.04375 -0.105,-0.11375 l -0.14875,-0.25375 z"
           inkscape:connector-curvature="0" />
      </g>
    </g>
  </g>
</svg>
